<svg width="20" height="20" viewBox="0 0 20 20" fill="none" xmlns="http://www.w3.org/2000/svg">
<circle cx="10" cy="10" r="10" fill="#00701A"/>
<path d="M6.48828 4.60938V6.38672H9.25V4.60938H10.7539V5.75781H13.2422V3.85742H14.7598V11.2812H13.2422V9.50391H10.7539V10.4883H4.9707V4.60938H6.48828ZM6.48828 9.29883H9.25V7.57617H6.48828V9.29883ZM10.5762 11.5C13.2012 11.5 14.8008 12.3613 14.8008 13.8652C14.8008 15.3418 13.2012 16.2031 10.5762 16.2031C7.96484 16.2031 6.36523 15.3418 6.37891 13.8652C6.36523 12.3613 7.96484 11.5 10.5762 11.5ZM10.5762 12.6621C8.85352 12.6621 7.88281 13.0723 7.88281 13.8652C7.88281 14.6172 8.85352 15.0273 10.5762 15.0273C12.2988 15.0273 13.2832 14.6172 13.2832 13.8652C13.2832 13.0723 12.2988 12.6621 10.5762 12.6621ZM10.7539 8.27344H13.2422V6.96094H10.7539V8.27344Z" fill="white"/>
</svg>
