<svg width="20" height="20" viewBox="0 0 20 20" fill="none" xmlns="http://www.w3.org/2000/svg">
<circle cx="10" cy="10" r="10" fill="#000507"/>
<path d="M7.73242 4.75977C9.5918 4.75977 10.9316 6.45508 10.9453 9.12109C10.9316 11.8145 9.5918 13.4961 7.73242 13.4961C5.85938 13.4961 4.50586 11.8145 4.51953 9.12109C4.50586 6.45508 5.85938 4.75977 7.73242 4.75977ZM7.73242 6.12695C6.69336 6.12695 5.98242 7.23438 5.98242 9.12109C5.98242 11.0215 6.69336 12.1289 7.73242 12.1289C8.78516 12.1289 9.48242 11.0215 9.48242 9.12109C9.48242 7.23438 8.78516 6.12695 7.73242 6.12695ZM15.9219 6.81055V8.08203H14.0898V10.4609H15.9219V11.7051H14.0898V16.2168H12.5723V3.85742H14.0898V6.81055H15.9219Z" fill="white"/>
</svg>
