<svg width="20" height="20" viewBox="0 0 20 20" fill="none" xmlns="http://www.w3.org/2000/svg">
<circle cx="10" cy="10" r="10" fill="#3354DA"/>
<path d="M14.7598 3.87109V12.9355H13.2422V9.87305H10.3027C9.70801 10.5361 8.83301 10.9395 7.8418 10.9395C5.98242 10.9395 4.57422 9.59961 4.57422 7.78125C4.57422 5.93555 5.98242 4.60938 7.8418 4.60938C8.82617 4.60938 9.69434 5.00586 10.2891 5.66211H13.2422V3.87109H14.7598ZM15.0742 14.7402V15.9707H6.65234V12.0059H8.16992V14.7402H15.0742ZM7.8418 5.96289C6.77539 5.96289 6.02344 6.67383 6.02344 7.78125C6.02344 8.875 6.77539 9.58594 7.8418 9.58594C8.85352 9.58594 9.61914 8.875 9.63281 7.78125C9.61914 6.67383 8.85352 5.96289 7.8418 5.96289ZM10.959 6.89258C11.0342 7.17285 11.082 7.4668 11.082 7.78125C11.082 8.08203 11.041 8.36914 10.9727 8.64258H13.2422V6.89258H10.959Z" fill="white"/>
</svg>
