<svg width="20" height="20" viewBox="0 0 20 20" fill="none" xmlns="http://www.w3.org/2000/svg">
<circle cx="10" cy="10" r="10" fill="#DA3333"/>
<path d="M15.0605 5.14258V6.3457H4.9707V5.14258H9.27734V3.83008H10.7812V5.14258H15.0605ZM15.7031 11.7598V12.9902H12.9688V16.2305H11.4375V12.9902H8.66211V16.2305H7.14453V12.9902H4.41016V11.7598H15.7031ZM10.0293 6.90625C12.6406 6.90625 14.2129 7.64453 14.2129 8.99805C14.2129 10.3379 12.6406 11.0898 10.0293 11.0898C7.41797 11.0898 5.8457 10.3379 5.8457 8.99805C5.8457 7.64453 7.41797 6.90625 10.0293 6.90625ZM10.0293 8.05469C8.32031 8.05469 7.41797 8.36914 7.43164 8.99805C7.41797 9.61328 8.32031 9.94141 10.0293 9.92773C11.7383 9.94141 12.6406 9.61328 12.6406 8.99805C12.6406 8.36914 11.7383 8.05469 10.0293 8.05469Z" fill="white"/>
</svg>
